<svg xmlns="http://www.w3.org/2000/svg" width="51.241" height="52.276" viewBox="0 0 51.241 52.276">
  <g id="Group_60" data-name="Group 60" transform="translate(0 0)">
    <path id="Path_87" data-name="Path 87" d="M568.746,2158.615h-6.265v-13.426h6.265v13.426Zm-8.055,0H543.014v-35.13h17.677v35.13ZM541,2122.482v7.042l-8.727,2.439V2114.7l8.183-4.2,8.823,4.222v6.753h-7.268a1.01,1.01,0,0,0-1.011,1.011Zm0,36.133H521.533V2137.1l10.192-2.909L541,2131.6v27.017Zm14.457-46.954c.723-.606,2.633-.013,4.151,1.795,1.243,1.475,1.932,3.662,1.056,4.4-.707.6-2.616.031-4.151-1.792-1.49-1.772-1.788-3.784-1.056-4.4Zm14.289,31.514h-7.265v-20.693a1.01,1.01,0,0,0-1.012-1.011h-9.3l3.529-3.332c1.994,1.881,4.64,2.637,6.27,1.262,2.042-1.713.982-5.119-.81-7.248-2.09-2.485-5.182-3.568-7-2.039-1.569,1.318-1.43,4.046.231,6.482l-3.092,2.918v-5.431a1.054,1.054,0,0,0-.618-.911l-9.823-4.721a1.033,1.033,0,0,0-.911.014l-9.114,4.719a1.035,1.035,0,0,0-.568.9v18.447l-10.007,2.828a1.012,1.012,0,0,0-.734.973v23.332a.971.971,0,0,0,1.011.964h49.216a.973.973,0,0,0,1.014-.964v-15.507a.988.988,0,0,0-1.014-.982Z" transform="translate(-519.519 -2108.353)" fill="#556474"/>
    <path id="Path_88" data-name="Path 88" d="M988.245,2479.251v2.685h-2.685v-2.685Z" transform="translate(-954.457 -2454.498)" fill="#556474"/>
    <path id="Path_89" data-name="Path 89" d="M988.245,2569.777v2.685h-2.685v-2.685Z" transform="translate(-954.457 -2538.982)" fill="#556474"/>
    <path id="Path_90" data-name="Path 90" d="M988.245,2388.725v2.685h-2.685v-2.685Z" transform="translate(-954.457 -2370.014)" fill="#556474"/>
    <path id="Path_91" data-name="Path 91" d="M904.648,2479.251v2.685h-2.909v-2.685Z" transform="translate(-876.231 -2454.498)" fill="#556474"/>
    <path id="Path_92" data-name="Path 92" d="M904.648,2660.3v2.685h-2.909V2660.3Z" transform="translate(-876.231 -2623.467)" fill="#556474"/>
    <path id="Path_93" data-name="Path 93" d="M904.648,2569.777v2.685h-2.909v-2.685Z" transform="translate(-876.231 -2538.982)" fill="#556474"/>
    <path id="Path_94" data-name="Path 94" d="M904.648,2388.725v2.685h-2.909v-2.685Z" transform="translate(-876.231 -2370.014)" fill="#556474"/>
    <path id="Path_95" data-name="Path 95" d="M1068.712,2388.725v2.685h-2.685v-2.685Z" transform="translate(-1029.554 -2370.014)" fill="#556474"/>
    <path id="Path_96" data-name="Path 96" d="M1068.712,2479.251v2.685h-2.685v-2.685Z" transform="translate(-1029.554 -2454.498)" fill="#556474"/>
    <path id="Path_97" data-name="Path 97" d="M762.5,2226.451H750.863v-2.014H762.5v2.014Z" transform="translate(-735.423 -2216.69)" fill="#556474"/>
    <path id="Path_98" data-name="Path 98" d="M755.562,2286.8h-4.7v-2.014h4.7v2.014Z" transform="translate(-735.423 -2273.013)" fill="#556474"/>
    <path id="Path_99" data-name="Path 99" d="M755.562,2360.564h-4.7v-2.014h4.7v2.014Z" transform="translate(-735.423 -2341.853)" fill="#556474"/>
    <path id="Path_100" data-name="Path 100" d="M603.354,2581.849H589.928v-2.014h13.426v2.014Z" transform="translate(-585.229 -2548.37)" fill="#556474"/>
    <path id="Path_101" data-name="Path 101" d="M603.354,2672.375H589.928v-2.014h13.426v2.014Z" transform="translate(-585.229 -2632.854)" fill="#556474"/>
    <path id="Path_102" data-name="Path 102" d="M603.354,2752.843H589.928v-2.014h13.426v2.014Z" transform="translate(-585.229 -2707.951)" fill="#556474"/>
  </g>
</svg>
