<svg xmlns="http://www.w3.org/2000/svg" width="57.549" height="57.369" viewBox="0 0 57.549 57.369">
  <g id="Group_58" data-name="Group 58" transform="translate(0 1)">
    <path id="Path_82" data-name="Path 82" d="M337.868,179.462V159.014l2.406-2.406V153H309v4.811l2.406,1.2v20.448" transform="translate(-283.725 -124.132)" fill="none" stroke="#556474" stroke-miterlimit="10" stroke-width="2"/>
    <path id="Path_83" data-name="Path 83" d="M325.028,156.448V142.014A7.42,7.42,0,0,0,321.42,136h-4.811A7.42,7.42,0,0,0,313,142.014v14.434" transform="translate(-282.914 -127.58)" fill="none" stroke="#556474" stroke-miterlimit="10" stroke-width="2"/>
    <path id="Path_84" data-name="Path 84" d="M330.028,155.462V131.406A2.406,2.406,0,0,0,327.623,129h-7.217A2.4,2.4,0,0,0,318,131.406v2.406" transform="translate(-281.9 -129)" fill="none" stroke="#556474" stroke-miterlimit="10" stroke-width="2"/>
    <line id="Line_31" data-name="Line 31" x2="3.484" transform="translate(44.419 12.692)" fill="none" stroke="#556474" stroke-miterlimit="10" stroke-width="2"/>
    <line id="Line_32" data-name="Line 32" x2="4.355" transform="translate(33.968 4.853)" fill="none" stroke="#556474" stroke-miterlimit="10" stroke-width="2"/>
    <line id="Line_33" data-name="Line 33" x2="3.484" transform="translate(44.419 18.788)" fill="none" stroke="#556474" stroke-miterlimit="10" stroke-width="2"/>
    <line id="Line_34" data-name="Line 34" y2="8.71" transform="translate(53.129 18.788)" fill="none" stroke="#556474" stroke-miterlimit="10" stroke-width="2"/>
    <line id="Line_35" data-name="Line 35" x1="10.452" transform="translate(43.548 35.337)" fill="none" stroke="#556474" stroke-miterlimit="10" stroke-width="2"/>
    <line id="Line_36" data-name="Line 36" x2="57.484" transform="translate(0 55.369)" fill="none" stroke="#556474" stroke-miterlimit="10" stroke-width="2"/>
    <line id="Line_37" data-name="Line 37" y2="3.484" transform="translate(43.548 46.659)" fill="none" stroke="#556474" stroke-miterlimit="10" stroke-width="2"/>
    <line id="Line_38" data-name="Line 38" y2="3.484" transform="translate(38.323 46.659)" fill="none" stroke="#556474" stroke-miterlimit="10" stroke-width="2"/>
    <line id="Line_39" data-name="Line 39" y2="3.484" transform="translate(33.968 46.659)" fill="none" stroke="#556474" stroke-miterlimit="10" stroke-width="2"/>
    <line id="Line_40" data-name="Line 40" y2="3.484" transform="translate(47.903 46.659)" fill="none" stroke="#556474" stroke-miterlimit="10" stroke-width="2"/>
    <line id="Line_41" data-name="Line 41" x2="6.097" transform="translate(27.871 35.337)" fill="none" stroke="#556474" stroke-miterlimit="10" stroke-width="2"/>
    <path id="Path_85" data-name="Path 85" d="M312.651,164H291v13.231" transform="translate(-287.376 -121.901)" fill="none" stroke="#556474" stroke-miterlimit="10" stroke-width="2"/>
    <line id="Line_42" data-name="Line 42" y2="3.484" transform="translate(18.29 46.659)" fill="none" stroke="#556474" stroke-miterlimit="10" stroke-width="2"/>
    <line id="Line_43" data-name="Line 43" y2="3.484" transform="translate(13.065 46.659)" fill="none" stroke="#556474" stroke-miterlimit="10" stroke-width="2"/>
    <line id="Line_44" data-name="Line 44" y2="3.484" transform="translate(8.71 46.659)" fill="none" stroke="#556474" stroke-miterlimit="10" stroke-width="2"/>
    <line id="Line_45" data-name="Line 45" y2="3.484" transform="translate(22.645 46.659)" fill="none" stroke="#556474" stroke-miterlimit="10" stroke-width="2"/>
    <rect id="Rectangle_30" data-name="Rectangle 30" width="6.968" height="29.613" transform="translate(13.065 12.692)" fill="none" stroke="#556474" stroke-miterlimit="10" stroke-width="2"/>
    <line id="Line_46" data-name="Line 46" y1="13.065" transform="translate(6.968 29.24)" fill="none" stroke="#556474" stroke-miterlimit="10" stroke-width="2"/>
  </g>
</svg>
