<svg id="Component_3_1" data-name="Component 3 – 1" xmlns="http://www.w3.org/2000/svg" width="251.371" height="55.381" viewBox="0 0 251.371 55.381">
  <text id="ΜΕΤΑΛΛΙΚΕΣ_ΚΑΤΑΣΚΕΥΕΣ" data-name="ΜΕΤΑΛΛΙΚΕΣ ΚΑΤΑΣΚΕΥΕΣ" transform="translate(82 51.381)" fill="#fff" font-size="14" font-family="SegoeUI, Segoe UI"><tspan x="0" y="0">ΜΕΤΑΛΛΙΚΕΣ ΚΑΤΑΣΚΕΥΕΣ</tspan></text>
  <g id="Group_13" data-name="Group 13">
    <g id="Group_12" data-name="Group 12" transform="translate(0)">
      <path id="Path_35" data-name="Path 35" d="M643.853,304.936v6.585l5.7,3.293,5.7-3.293v-6.585l-5.7-3.293Z" transform="translate(-614.229 -274.826)" fill="#ffc631"/>
      <path id="Path_36" data-name="Path 36" d="M538.188,225.467H522.654l22.861-33.25,22.861,33.25H552.842v6.557h28l-35.327-51.381-35.327,51.381h28Z" transform="translate(-510.188 -180.643)" fill="#fff"/>
    </g>
  </g>
  <g id="Group_14" data-name="Group 14" transform="translate(82.661 12.921)">
    <path id="Path_37" data-name="Path 37" d="M301.306,559.609l-1.02-3.033H293l-1.105,3.033h-5.754l8.419-20.976h4.223l8.334,20.976Zm-4.592-14.428-.085-.028-2.154,7.172h4.394Z" transform="translate(-286.141 -538.236)" fill="#fff"/>
    <path id="Path_38" data-name="Path 38" d="M378.737,548.21c0-6.492,4.677-11.367,11.055-11.367a10.886,10.886,0,1,1,.255,21.77C384.208,558.613,378.737,554.417,378.737,548.21Zm16.781-.453a5.931,5.931,0,0,0-5.726-6.208,5.835,5.835,0,0,0-5.7,6.123c0,3.458,2.353,6.236,5.783,6.236C393.193,553.908,395.518,551.1,395.518,547.756Zm-8.872,1.587v-3.8h6.321v3.8Z" transform="translate(-358.215 -536.843)" fill="#fff"/>
    <path id="Path_39" data-name="Path 39" d="M491.742,559.609l-1.021-3.033h-7.285l-1.106,3.033h-5.754L485,538.633h4.224l8.334,20.976Zm-4.592-14.428-.085-.028-2.154,7.172H489.3Z" transform="translate(-434.371 -538.236)" fill="#fff"/>
    <path id="Path_40" data-name="Path 40" d="M593.977,559.609l-8.05-12.813.142,12.813h-5.131V538.633h4.621l8.164,13.266-.227-13.266h5.131v20.976Z" transform="translate(-515.603 -538.236)" fill="#fff"/>
    <path id="Path_41" data-name="Path 41" d="M683.2,559.609l-1.021-3.033h-7.285l-1.105,3.033h-5.754l8.419-20.976h4.224l8.334,20.976Zm-4.592-14.428-.085-.028-2.154,7.172h4.394Z" transform="translate(-583.396 -538.236)" fill="#fff"/>
    <path id="Path_42" data-name="Path 42" d="M770.121,559.609l-.028-3.713,5.811-6.888-5.5-6.406v-3.969h12.586v4.706h-6.038l4.762,5.584-5.074,5.981h6.69l.028,4.705Z" transform="translate(-662.835 -538.236)" fill="#fff"/>
    <path id="Path_43" data-name="Path 43" d="M839.539,559.609V538.633H844.9v20.976Z" transform="translate(-716.89 -538.236)" fill="#fff"/>
    <path id="Path_44" data-name="Path 44" d="M871.639,548.21c0-6.492,4.677-11.367,11.055-11.367a10.886,10.886,0,1,1,.255,21.77C877.11,558.613,871.639,554.417,871.639,548.21Zm16.781-.453a5.931,5.931,0,0,0-5.726-6.208,5.835,5.835,0,0,0-5.7,6.123c0,3.458,2.353,6.236,5.783,6.236C886.1,553.908,888.42,551.1,888.42,547.756Z" transform="translate(-741.876 -536.843)" fill="#fff"/>
    <path id="Path_45" data-name="Path 45" d="M973.186,559.609v-7.625l-6.265-13.351h5.811l3.118,8.419L979,538.633h5.754l-6.208,13.351v7.625Z" transform="translate(-816.041 -538.236)" fill="#fff"/>
  </g>
</svg>
