<svg xmlns="http://www.w3.org/2000/svg" xmlns:xlink="http://www.w3.org/1999/xlink" width="200.996" height="36.83" viewBox="0 0 200.996 36.83">
  <defs>
    <linearGradient id="linear-gradient" x1="1.198" y1="0.534" x2="-0.343" y2="0.459" gradientUnits="objectBoundingBox">
      <stop offset="0" stop-color="#38c6f4"/>
      <stop offset="1" stop-color="#644a9e"/>
    </linearGradient>
    <linearGradient id="linear-gradient-2" x1="1.085" y1="0.603" x2="0.004" y2="0.415" xlink:href="#linear-gradient"/>
  </defs>
  <g id="Group_12954" data-name="Group 12954" transform="translate(-260 -37.6)">
    <g id="Group_289" data-name="Group 289" transform="translate(385.173 68.98)">
      <g id="Group_270" data-name="Group 270" transform="translate(0 0.063)">
        <path id="Path_20609" data-name="Path 20609" d="M468.248,117.831H467.08v-.5h2.9v.5h-1.174v2.977h-.56Z" transform="translate(-467.08 -117.33)" fill="#6b489d"/>
      </g>
      <g id="Group_271" data-name="Group 271" transform="translate(3.76 0.004)">
        <path id="Path_20610" data-name="Path 20610" d="M483.517,120.066h-1.562l-.249.579h-.595l1.533-3.535h.19l1.533,3.535h-.606Zm-.78-1.913-.584,1.434h1.166Z" transform="translate(-481.11 -117.11)" fill="#6b489d"/>
      </g>
      <g id="Group_272" data-name="Group 272" transform="translate(8.619 0.063)">
        <path id="Path_20611" data-name="Path 20611" d="M499.24,117.33h.56v2.977h1.589v.5h-2.144Z" transform="translate(-499.24 -117.33)" fill="#6b489d"/>
      </g>
      <g id="Group_273" data-name="Group 273" transform="translate(12.384 0.063)">
        <path id="Path_20612" data-name="Path 20612" d="M513.29,117.33h2.289v.5H513.85v.89h1.3v.485h-1.3v1.1h1.79v.5h-2.35Z" transform="translate(-513.29 -117.33)" fill="#6b489d"/>
      </g>
      <g id="Group_274" data-name="Group 274" transform="translate(16.433 0.004)">
        <path id="Path_20613" data-name="Path 20613" d="M531.268,117.169V120.7h-.19l-2.117-2.412v2.356h-.56V117.11h.2l2.112,2.412v-2.345Z" transform="translate(-528.4 -117.11)" fill="#6b489d"/>
      </g>
      <g id="Group_275" data-name="Group 275" transform="translate(20.882 0.063)">
        <path id="Path_20614" data-name="Path 20614" d="M546.166,117.831H545v-.5h2.9v.5h-1.174v2.977h-.557Z" transform="translate(-545 -117.33)" fill="#6b489d"/>
      </g>
      <g id="Group_276" data-name="Group 276" transform="translate(27.407 0.004)">
        <path id="Path_20615" data-name="Path 20615" d="M569.35,118.907a1.793,1.793,0,0,1,1.787-1.8h.04a1.712,1.712,0,0,1,1.49.8l-.421.311a1.252,1.252,0,0,0-2.318.614.326.326,0,0,0,0,.072,1.233,1.233,0,0,0,1.182,1.284h.072a1.227,1.227,0,0,0,1.072-.6l.421.311a1.7,1.7,0,0,1-1.49.8,1.788,1.788,0,0,1-1.828-1.75Z" transform="translate(-569.35 -117.108)" fill="#6b489d"/>
      </g>
      <g id="Group_277" data-name="Group 277" transform="translate(32.21 0.004)">
        <path id="Path_20616" data-name="Path 20616" d="M587.27,118.908a1.793,1.793,0,0,1,1.785-1.8h.037a1.8,1.8,0,0,1,1.828,1.771v.027a1.793,1.793,0,0,1-1.793,1.8h-.035a1.788,1.788,0,0,1-1.822-1.753Zm3.077,0a1.238,1.238,0,0,0-1.193-1.292H589.1a1.225,1.225,0,0,0-1.249,1.2.75.75,0,0,0,0,.078,1.227,1.227,0,0,0,1.166,1.289h.083a1.238,1.238,0,0,0,1.249-1.225v-.067Z" transform="translate(-587.27 -117.109)" fill="#6b489d"/>
      </g>
      <g id="Group_278" data-name="Group 278" transform="translate(37.58 0.004)">
        <path id="Path_20617" data-name="Path 20617" d="M610.175,117.169V120.7h-.19l-2.117-2.412v2.356h-.557V117.11h.185l2.112,2.412v-2.345Z" transform="translate(-607.31 -117.11)" fill="#6b489d"/>
      </g>
      <g id="Group_279" data-name="Group 279" transform="translate(42.128)">
        <path id="Path_20618" data-name="Path 20618" d="M624.28,119.94l.4-.3a1.093,1.093,0,0,0,.911.552c.359,0,.6-.182.6-.482s-.206-.381-.512-.523l-.383-.18c-.421-.2-.8-.453-.8-.965a1,1,0,0,1,1.045-.946h.051a1.286,1.286,0,0,1,1.123.622l-.391.3a.868.868,0,0,0-.732-.421c-.268,0-.536.137-.536.421s.2.359.485.5l.391.18c.536.244.831.512.831.992a1.042,1.042,0,0,1-1.163,1A1.485,1.485,0,0,1,624.28,119.94Z" transform="translate(-624.28 -117.095)" fill="#6b489d"/>
      </g>
      <g id="Group_280" data-name="Group 280" transform="translate(46.34 0.06)">
        <path id="Path_20619" data-name="Path 20619" d="M640,119.394v-2.072h.56v2.106a.833.833,0,0,0,.745.914.69.69,0,0,0,.129,0,.828.828,0,0,0,.868-.785.726.726,0,0,0,0-.131V117.32h.56v2.072a1.364,1.364,0,0,1-1.251,1.461,1.221,1.221,0,0,1-.172,0A1.356,1.356,0,0,1,640,119.571,1.38,1.38,0,0,1,640,119.394Z" transform="translate(-639.997 -117.32)" fill="#6b489d"/>
      </g>
      <g id="Group_281" data-name="Group 281" transform="translate(51.082 0.063)">
        <path id="Path_20620" data-name="Path 20620" d="M657.69,117.33h.557v2.977h1.592v.5H657.7Z" transform="translate(-657.69 -117.33)" fill="#6b489d"/>
      </g>
      <g id="Group_282" data-name="Group 282" transform="translate(53.845 0.063)">
        <path id="Path_20621" data-name="Path 20621" d="M669.16,117.831H668v-.5h2.9v.5h-1.174v2.977h-.557Z" transform="translate(-668 -117.33)" fill="#6b489d"/>
      </g>
      <g id="Group_283" data-name="Group 283" transform="translate(57.597 0.004)">
        <path id="Path_20622" data-name="Path 20622" d="M684.412,120.066H682.85l-.249.579H682l1.533-3.535h.19l1.533,3.535h-.6Zm-.788-1.913-.584,1.436h1.166Z" transform="translate(-682 -117.11)" fill="#6b489d"/>
      </g>
      <g id="Group_284" data-name="Group 284" transform="translate(62.455 0.004)">
        <path id="Path_20623" data-name="Path 20623" d="M702.995,117.169V120.7h-.19l-2.117-2.412v2.356h-.557V117.11h.193l2.114,2.412v-2.345Z" transform="translate(-700.13 -117.11)" fill="#6b489d"/>
      </g>
      <g id="Group_285" data-name="Group 285" transform="translate(67.041 0.004)">
        <path id="Path_20624" data-name="Path 20624" d="M717.24,118.907a1.793,1.793,0,0,1,1.788-1.8h.04a1.713,1.713,0,0,1,1.49.8l-.421.311a1.252,1.252,0,0,0-2.318.614.65.65,0,0,0,0,.072A1.233,1.233,0,0,0,719,120.193h.07a1.227,1.227,0,0,0,1.072-.6l.421.311a1.7,1.7,0,0,1-1.49.8,1.787,1.787,0,0,1-1.828-1.75Z" transform="translate(-717.24 -117.108)" fill="#6b489d"/>
      </g>
      <g id="Group_286" data-name="Group 286" transform="translate(71.69 0.063)">
        <path id="Path_20625" data-name="Path 20625" d="M736.348,119.407v1.4h-.557v-1.4l-1.2-2.077h.622l.858,1.511.863-1.511h.619Z" transform="translate(-734.59 -117.33)" fill="#6b489d"/>
      </g>
    </g>
    <path id="Union_2" data-name="Union 2" d="M18.309,27.78l-5.178,9.026L10.315,35.2,16.883,23.76l2.8-.024,6.826,11.43L23.723,36.83Zm5.451-7.823-.024-2.806,11.43-6.826,1.664,2.806-9.05,5.392L36.806,23.7,35.2,26.515ZM.024,23.7,9.05,18.524,0,13.132l1.664-2.787,11.43,6.807-.024,2.8L1.64,26.512ZM15.1,18.414a3.312,3.312,0,1,1,.969,2.347A3.315,3.315,0,0,1,15.1,18.414Zm1.782-5.344L10.318,1.64,13.132.024,18.309,9.05,23.712,0,26.5,1.664l-6.826,11.43Z" transform="translate(260 37.6)" fill="url(#linear-gradient)"/>
    <path id="Union_4" data-name="Union 4" d="M335.117,34.292a7.939,7.939,0,0,1-.464-15.87h.188a6.791,6.791,0,0,1,7.008,6.968,9.546,9.546,0,0,1-.252,2.042l-11.323-.024a4.692,4.692,0,0,0,4.942,4,6.487,6.487,0,0,0,4.427-1.785l1.544,2.23a8.667,8.667,0,0,1-6.041,2.439Zm-4.776-9.415,8.259.019a3.687,3.687,0,0,0-3.889-3.722h0A4.453,4.453,0,0,0,330.342,24.877Zm-19.076,9.366a6.481,6.481,0,0,1-5.317-2.455v2.1h-3.034l.051-23.2h3.248l-.011,9.867a6.435,6.435,0,0,1,5.078-2.184c4.331,0,7.447,3.449,7.439,7.965s-3.138,7.906-7.426,7.906Zm-5.119-7.927c0,3.465,2.31,4.955,4.569,4.961a4.667,4.667,0,0,0,4.65-4.971,4.657,4.657,0,0,0-4.631-4.961h0C308.439,21.34,306.155,22.884,306.147,26.317ZM288.066,34.2a7.587,7.587,0,0,1-6.121-2.948l1.86-2.037a5.837,5.837,0,0,0,4.266,2.173c1.34,0,2.444-.552,2.447-1.7,0-.992-.9-1.394-2.144-1.892l-1.546-.651c-2.441-1.026-3.956-2.144-3.95-4.433,0-2.817,2.361-4.39,5.36-4.382a6.6,6.6,0,0,1,5.269,2.358l-1.774,2a4.963,4.963,0,0,0-3.556-1.554c-1.206,0-2.074.461-2.074,1.45,0,.8.616,1.209,2.007,1.8l1.461.59c2.75,1.15,4.14,2.358,4.135,4.588,0,3.055-2.6,4.628-5.628,4.628Zm-12.839-.029a7.571,7.571,0,0,1-6.118-2.948l1.86-2.037a5.832,5.832,0,0,0,4.264,2.173c1.34,0,2.447-.552,2.449-1.7,0-.989-.9-1.394-2.13-1.892L274,27.121c-2.441-1.026-3.956-2.144-3.95-4.435,0-2.817,2.361-4.387,5.36-4.382a6.609,6.609,0,0,1,5.255,2.364L278.9,22.675a4.947,4.947,0,0,0-3.554-1.554c-1.206,0-2.074.461-2.077,1.453,0,.8.619,1.206,2.007,1.8l1.453.59c2.752,1.152,4.14,2.361,4.138,4.588,0,3.055-2.6,4.628-5.628,4.628Zm-13.89-.027a7.935,7.935,0,0,1-.461-15.862h.188a6.791,6.791,0,0,1,7.008,6.968,9.7,9.7,0,0,1-.252,2.042l-11.325-.024a4.694,4.694,0,0,0,4.942,4,6.5,6.5,0,0,0,4.43-1.785l1.541,2.23a8.664,8.664,0,0,1-6.049,2.431Zm-4.776-9.417,8.262.019a3.687,3.687,0,0,0-3.891-3.72h0A4.45,4.45,0,0,0,256.561,24.722ZM245.683,34.1a7.936,7.936,0,1,1-.142-15.87h.177a7.263,7.263,0,0,1,6.4,3.54l-2.3,1.79a4.833,4.833,0,0,0-4.079-2.329,4.722,4.722,0,0,0-4.773,4.907,4.72,4.72,0,0,0,4.754,4.961,4.892,4.892,0,0,0,4.087-2.281L252.1,30.6a7.33,7.33,0,0,1-6.392,3.511Zm-15.53-.032a7.936,7.936,0,0,1-.142-15.87h.177a7.263,7.263,0,0,1,6.4,3.54l-2.3,1.79a4.842,4.842,0,0,0-4.079-2.332,4.729,4.729,0,0,0-4.773,4.91,4.718,4.718,0,0,0,4.754,4.961,4.892,4.892,0,0,0,4.087-2.281l2.286,1.769a7.33,7.33,0,0,1-6.392,3.511Zm-16.983-.035a6.376,6.376,0,0,1-6.635-6.727l.019-8.817h3.216l-.019,9.066a3.3,3.3,0,0,0,3.127,3.476h.3a3.269,3.269,0,0,0,3.347-3.457l.019-9.066h3.248l-.019,8.817a6.361,6.361,0,0,1-6.587,6.7ZM198.538,34a7.573,7.573,0,0,1-6.118-2.948l1.86-2.039a5.826,5.826,0,0,0,4.266,2.176c1.34,0,2.444-.552,2.447-1.7,0-.992-.9-1.394-2.131-1.892l-1.546-.654c-2.441-1.026-3.956-2.144-3.95-4.433,0-2.814,2.361-4.387,5.36-4.379a6.606,6.606,0,0,1,5.255,2.361l-1.758,2a4.952,4.952,0,0,0-3.564-1.546c-1.206,0-2.074.461-2.074,1.45,0,.8.614,1.209,2.007,1.8l1.452.592c2.75,1.15,4.138,2.358,4.135,4.588,0,3.055-2.6,4.628-5.628,4.628Zm122.66-.08.048-23.2h3.248l-.048,23.2Zm-25-.054.032-15.192h3.248l-.032,15.19Zm1.678-18.714a2.16,2.16,0,0,1-2.222-2.1v-.04a2.214,2.214,0,0,1,4.425,0,2.144,2.144,0,0,1-2.176,2.144h-.027Z" transform="translate(119.147 29.775)" fill="url(#linear-gradient-2)"/>
  </g>
</svg>
