<svg xmlns="http://www.w3.org/2000/svg" width="15.813" height="14.725" viewBox="0 0 15.813 14.725">
  <g id="arrow-right" transform="translate(1 1)">
    <path id="Path_69" data-name="Path 69" d="M-32.064-831.583a1,1,0,0,1-.707-.293,1,1,0,0,1,0-1.414l5.655-5.655-5.655-5.655a1,1,0,0,1,0-1.414,1,1,0,0,1,1.414,0l7.07,7.07-7.07,7.07A1,1,0,0,1-32.064-831.583Z" transform="translate(39.1 845.308)" fill="#ffc631"/>
    <path id="Path_70" data-name="Path 70" d="M-25.943-837.946H-39.1a1,1,0,0,1-1-1,1,1,0,0,1,1-1h13.157a1,1,0,0,1,1,1A1,1,0,0,1-25.943-837.946Z" transform="translate(39.1 845.308)" fill="#ffc631"/>
  </g>
</svg>
