<svg xmlns="http://www.w3.org/2000/svg" width="18.887" height="26.475" viewBox="0 0 18.887 26.475">
  <path id="Path_71_-_Outline" data-name="Path 71 - Outline" d="M-128.641-171.005a.89.89,0,0,1-.709-.355c-.021-.029-2.186-2.923-4.322-6.364a51.779,51.779,0,0,1-2.993-5.424,12.294,12.294,0,0,1-1.419-4.888,9.454,9.454,0,0,1,9.444-9.444,9.454,9.454,0,0,1,9.444,9.444,12.294,12.294,0,0,1-1.419,4.888,51.791,51.791,0,0,1-2.993,5.424c-2.137,3.441-4.3,6.335-4.323,6.364A.89.89,0,0,1-128.641-171.005Zm0-24.7a7.68,7.68,0,0,0-7.672,7.672,11.432,11.432,0,0,0,1.255,4.145,50.045,50.045,0,0,0,2.89,5.233c1.438,2.315,2.767,4.211,3.526,5.26.759-1.049,2.088-2.944,3.526-5.26a50.039,50.039,0,0,0,2.89-5.233,11.433,11.433,0,0,0,1.255-4.145A7.68,7.68,0,0,0-128.641-195.708Zm0,13.5a5.833,5.833,0,0,1-5.827-5.827,5.833,5.833,0,0,1,5.827-5.827,5.833,5.833,0,0,1,5.827,5.827A5.833,5.833,0,0,1-128.641-182.21Zm0-9.881a4.059,4.059,0,0,0-4.055,4.055,4.059,4.059,0,0,0,4.055,4.055,4.059,4.059,0,0,0,4.055-4.055A4.059,4.059,0,0,0-128.641-192.091Z" transform="translate(138.085 197.48)" fill="#ffc631"/>
</svg>
