<svg id="Group_5090" data-name="Group 5090" xmlns="http://www.w3.org/2000/svg" xmlns:xlink="http://www.w3.org/1999/xlink" width="36.843" height="39.082" viewBox="0 0 36.843 39.082">
  <defs>
    <clipPath id="clip-path">
      <rect id="Rectangle_497" data-name="Rectangle 497" width="36.843" height="39.082" fill="rgba(0,0,0,0)"/>
    </clipPath>
  </defs>
  <g id="Group_5068" data-name="Group 5068" clip-path="url(#clip-path)">
    <path id="Path_2885" data-name="Path 2885" d="M38.349,12.5,28.465,2.228A.747.747,0,0,0,27.927,2H13.2a2.993,2.993,0,0,0-2.99,2.989V15.429H4.236A2.239,2.239,0,0,0,2,17.665v11.2A2.239,2.239,0,0,0,4.236,31.1h5.97v6.716A2.991,2.991,0,0,0,13.2,40.8H35.567a2.989,2.989,0,0,0,2.99-2.982v-24.8a.747.747,0,0,0-.208-.518M28.112,4.013l8.114,8.431H28.112ZM4.236,29.6a.745.745,0,0,1-.745-.744v-11.2a.745.745,0,0,1,.745-.744H24.383a.745.745,0,0,1,.745.744v11.2a.745.745,0,0,1-.745.744Zm32.829,8.21a1.5,1.5,0,0,1-1.5,1.49H13.2a1.5,1.5,0,0,1-1.5-1.491V31.1H24.383A2.239,2.239,0,0,0,26.62,28.86v-11.2a2.239,2.239,0,0,0-2.237-2.236H11.7V4.988a1.5,1.5,0,0,1,1.5-1.5H26.62v9.7a.746.746,0,0,0,.746.746h9.7Z" transform="translate(-1.856 -1.856)" fill="#141212"/>
    <path id="Path_2886" data-name="Path 2886" d="M33.711,39.082H11.339a3.133,3.133,0,0,1-3.132-3.126V29.383H2.38A2.382,2.382,0,0,1,0,27v-11.2A2.382,2.382,0,0,1,2.38,13.43H8.207V3.131A3.136,3.136,0,0,1,11.339,0H26.071a.894.894,0,0,1,.64.272L36.6,10.543a.886.886,0,0,1,.248.616v24.8a3.132,3.132,0,0,1-3.133,3.124M2.38,13.715A2.1,2.1,0,0,0,.285,15.809V27A2.1,2.1,0,0,0,2.38,29.1H8.492v6.858A2.847,2.847,0,0,0,11.339,38.8H33.711a2.846,2.846,0,0,0,2.847-2.839v-24.8a.6.6,0,0,0-.168-.419L26.506.47a.608.608,0,0,0-.435-.185H11.339A2.85,2.85,0,0,0,8.492,3.131V13.715ZM33.711,37.59H11.339A1.639,1.639,0,0,1,9.7,35.956V29.1H22.527A2.1,2.1,0,0,0,24.621,27v-11.2a2.1,2.1,0,0,0-2.094-2.094H9.7V3.131a1.642,1.642,0,0,1,1.64-1.639H24.906v9.842a.6.6,0,0,0,.6.6h9.842v24.02a1.638,1.638,0,0,1-1.64,1.632M9.984,29.383v6.573A1.354,1.354,0,0,0,11.339,37.3H33.711a1.353,1.353,0,0,0,1.355-1.347V12.223H25.51a.89.89,0,0,1-.889-.889V1.777H11.339A1.356,1.356,0,0,0,9.984,3.131v10.3H22.527a2.382,2.382,0,0,1,2.379,2.379V27a2.382,2.382,0,0,1-2.379,2.379ZM22.527,27.89H2.38A.888.888,0,0,1,1.492,27v-11.2a.888.888,0,0,1,.887-.887H22.527a.888.888,0,0,1,.887.887V27a.888.888,0,0,1-.887.887M2.38,15.207a.6.6,0,0,0-.6.6V27a.6.6,0,0,0,.6.6H22.527a.6.6,0,0,0,.6-.6v-11.2a.6.6,0,0,0-.6-.6ZM34.7,10.73H26.113V1.8ZM26.4,10.445h7.636L26.4,2.511Z" fill="#141212"/>
    <path id="Path_2887" data-name="Path 2887" d="M67.066,257.5a7.516,7.516,0,0,0-1.539-.1H63.451v6.409h1.294V261.4h.844a7.362,7.362,0,0,0,1.342-.092,1.873,1.873,0,0,0,.671-.3,1.76,1.76,0,0,0,.544-.632,2.091,2.091,0,0,0,.214-.992,1.99,1.99,0,0,0-.372-1.248,1.68,1.68,0,0,0-.922-.627m-.186,2.391a.85.85,0,0,1-.4.315,3.35,3.35,0,0,1-1.023.1h-.708v-1.818h.625a6.2,6.2,0,0,1,.931.044.9.9,0,0,1,.52.284.827.827,0,0,1,.206.577.861.861,0,0,1-.147.5" transform="translate(-58.927 -239.05)" fill="#141212"/>
    <path id="Path_2888" data-name="Path 2888" d="M63.029,262.1H61.45V255.4h2.219a7.515,7.515,0,0,1,1.576.1,1.827,1.827,0,0,1,1,.678,2.137,2.137,0,0,1,.4,1.335,2.241,2.241,0,0,1-.231,1.059,1.909,1.909,0,0,1-.589.681,2.023,2.023,0,0,1-.722.326,7.425,7.425,0,0,1-1.372.1h-.7Zm-1.294-.285h1.009V259.4h.987a7.276,7.276,0,0,0,1.314-.089,1.74,1.74,0,0,0,.618-.281,1.626,1.626,0,0,0,.5-.582,1.961,1.961,0,0,0,.2-.925,1.86,1.86,0,0,0-.342-1.161,1.548,1.548,0,0,0-.845-.576h0a7.485,7.485,0,0,0-1.5-.091H61.735Zm1.859-3.221h-.851v-2.1h.768a6.23,6.23,0,0,1,.958.046,1.038,1.038,0,0,1,.6.329.969.969,0,0,1,.243.673,1.006,1.006,0,0,1-.171.579,1,1,0,0,1-.47.367,3.415,3.415,0,0,1-1.075.11m-.566-.285h.566a3.1,3.1,0,0,0,.971-.091.706.706,0,0,0,.338-.262.716.716,0,0,0,.122-.418.684.684,0,0,0-.169-.482.751.751,0,0,0-.44-.239,6.155,6.155,0,0,0-.906-.041h-.483Z" transform="translate(-57.068 -237.193)" fill="#141212"/>
    <path id="Path_2889" data-name="Path 2889" d="M151.685,258.118a2.143,2.143,0,0,0-.966-.59,4.613,4.613,0,0,0-1.22-.122h-2.365v6.409h2.435a3.919,3.919,0,0,0,1.145-.135,2.271,2.271,0,0,0,.909-.512,2.817,2.817,0,0,0,.686-1.132,4.2,4.2,0,0,0,.2-1.364,4.731,4.731,0,0,0-.21-1.515,2.8,2.8,0,0,0-.612-1.038m-.647,3.67a1.353,1.353,0,0,1-.339.619,1.191,1.191,0,0,1-.522.266,3.513,3.513,0,0,1-.783.061h-.966v-4.245h.582a5.837,5.837,0,0,1,1.062.061,1.229,1.229,0,0,1,.6.3,1.467,1.467,0,0,1,.367.621,3.834,3.834,0,0,1,.131,1.141,4.188,4.188,0,0,1-.131,1.174" transform="translate(-136.642 -239.05)" fill="#141212"/>
    <path id="Path_2890" data-name="Path 2890" d="M147.712,262.1h-2.578v-6.694h2.508a4.7,4.7,0,0,1,1.26.128,2.293,2.293,0,0,1,1.03.629h0a2.953,2.953,0,0,1,.643,1.09,4.892,4.892,0,0,1,.217,1.561,4.368,4.368,0,0,1-.2,1.41,2.972,2.972,0,0,1-.722,1.188,2.419,2.419,0,0,1-.965.545,4.069,4.069,0,0,1-1.189.142m-2.292-.285h2.292a3.8,3.8,0,0,0,1.1-.129,2.139,2.139,0,0,0,.853-.478,2.691,2.691,0,0,0,.651-1.076,4.086,4.086,0,0,0,.189-1.317,4.614,4.614,0,0,0-.2-1.469,2.672,2.672,0,0,0-.58-.986,2.012,2.012,0,0,0-.9-.552,4.507,4.507,0,0,0-1.18-.117h-2.222Zm2.118-.794h-1.109v-4.53h.724a5.867,5.867,0,0,1,1.094.065,1.373,1.373,0,0,1,.665.337,1.613,1.613,0,0,1,.4.68,3.98,3.98,0,0,1,.138,1.186,4.339,4.339,0,0,1-.137,1.215,1.474,1.474,0,0,1-.38.683,1.339,1.339,0,0,1-.583.3,3.608,3.608,0,0,1-.817.066m-.824-.285h.824a3.418,3.418,0,0,0,.747-.057,1.058,1.058,0,0,0,.462-.234,1.228,1.228,0,0,0,.3-.554,4.067,4.067,0,0,0,.125-1.132,3.72,3.72,0,0,0-.124-1.1,1.335,1.335,0,0,0-.33-.562,1.094,1.094,0,0,0-.531-.266,5.768,5.768,0,0,0-1.032-.058h-.439Z" transform="translate(-134.785 -237.194)" fill="#141212"/>
    <path id="Path_2891" data-name="Path 2891" d="M237.989,263.814h1.294V261.09h2.675v-1.084h-2.675v-1.517h3.1v-1.084h-4.394Z" transform="translate(-221.018 -239.051)" fill="#141212"/>
    <path id="Path_2892" data-name="Path 2892" d="M237.568,262.1h-1.579V255.4h4.679v1.369h-3.1v1.232h2.675v1.369h-2.675Zm-1.294-.285h1.009V259.09h2.676v-.8h-2.676v-1.8h3.1v-.8h-4.108Z" transform="translate(-219.161 -237.193)" fill="#141212"/>
  </g>
</svg>
